<svg xmlns="http://www.w3.org/2000/svg" xmlns:xlink="http://www.w3.org/1999/xlink" width="500" zoomAndPan="magnify" viewBox="0 0 375 374.999991" height="500" preserveAspectRatio="xMidYMid meet" version="1.0"><defs><g/><clipPath id="222297a774"><path d="M 106.464844 103.65625 L 268.464844 103.65625 L 268.464844 240.90625 L 106.464844 240.90625 Z M 106.464844 103.65625 " clip-rule="nonzero"/></clipPath></defs><rect x="-37.5" width="450" fill="#ffffff" y="-37.499999" height="449.999989" fill-opacity="1"/><rect x="-37.5" width="450" fill="#ffffff" y="-37.499999" height="449.999989" fill-opacity="1"/><g clip-path="url(#222297a774)"><path fill="#004aad" d="M 202.226562 145.265625 L 106.492188 241 L 106.492188 199.464844 L 202.226562 103.65625 Z M 172.765625 199.316406 L 172.765625 241 L 239.042969 174.796875 L 239.042969 241 L 268.5 211.539062 L 268.5 103.65625 Z M 172.765625 199.316406 " fill-opacity="1" fill-rule="nonzero"/></g><g fill="#ffffff" fill-opacity="1"><g transform="translate(145.61922, 331.194499)"><g><path d="M 12.1875 -9.796875 L 12.1875 -15.703125 L 15.28125 -15.703125 L 15.28125 0 L 12.1875 0 L 12.1875 -7.15625 L 5.140625 -7.15625 L 5.140625 0 L 2.046875 0 L 2.046875 -15.703125 L 5.140625 -15.703125 L 5.140625 -9.796875 Z M 12.1875 -9.796875 "/></g></g></g><g fill="#ffffff" fill-opacity="1"><g transform="translate(162.943296, 331.194499)"><g><path d="M 11.703125 -5.25 L 4.09375 -5.25 C 4.175781 -4.21875 4.46875 -3.46875 4.96875 -3 C 5.46875 -2.53125 6.15625 -2.296875 7.03125 -2.296875 C 7.707031 -2.296875 8.253906 -2.421875 8.671875 -2.671875 C 9.097656 -2.929688 9.441406 -3.316406 9.703125 -3.828125 L 9.921875 -3.828125 L 11.90625 -2.5625 C 11.519531 -1.738281 10.9375 -1.066406 10.15625 -0.546875 C 9.375 -0.0351562 8.332031 0.21875 7.03125 0.21875 C 5.800781 0.21875 4.738281 -0.0078125 3.84375 -0.46875 C 2.957031 -0.9375 2.269531 -1.628906 1.78125 -2.546875 C 1.300781 -3.472656 1.0625 -4.597656 1.0625 -5.921875 C 1.0625 -7.265625 1.316406 -8.394531 1.828125 -9.3125 C 2.335938 -10.238281 3.023438 -10.929688 3.890625 -11.390625 C 4.753906 -11.847656 5.726562 -12.078125 6.8125 -12.078125 C 8.488281 -12.078125 9.769531 -11.628906 10.65625 -10.734375 C 11.550781 -9.847656 12 -8.546875 12 -6.828125 C 12 -6.203125 11.976562 -5.71875 11.9375 -5.375 Z M 9.15625 -7.171875 C 9.125 -8.078125 8.910156 -8.734375 8.515625 -9.140625 C 8.128906 -9.554688 7.5625 -9.765625 6.8125 -9.765625 C 5.3125 -9.765625 4.425781 -8.898438 4.15625 -7.171875 Z M 9.15625 -7.171875 "/></g></g></g><g fill="#ffffff" fill-opacity="1"><g transform="translate(175.820897, 331.194499)"><g><path d="M 3.34375 0 L 0.203125 0 L 3.59375 -6.140625 L 0.390625 -11.84375 L 3.5625 -11.84375 L 5.625 -7.953125 L 5.859375 -7.953125 L 7.921875 -11.84375 L 11.015625 -11.84375 L 7.90625 -6.140625 L 11.1875 0 L 8.03125 0 L 5.796875 -4.328125 L 5.546875 -4.328125 Z M 3.34375 0 "/></g></g></g><g fill="#ffffff" fill-opacity="1"><g transform="translate(187.216339, 331.194499)"><g><path d="M 4.625 0.21875 C 3.863281 0.21875 3.203125 0.0820312 2.640625 -0.1875 C 2.085938 -0.46875 1.660156 -0.878906 1.359375 -1.421875 C 1.054688 -1.960938 0.90625 -2.613281 0.90625 -3.375 C 0.90625 -4.070312 1.054688 -4.660156 1.359375 -5.140625 C 1.660156 -5.617188 2.125 -6.007812 2.75 -6.3125 C 3.382812 -6.613281 4.207031 -6.847656 5.21875 -7.015625 C 5.925781 -7.128906 6.460938 -7.253906 6.828125 -7.390625 C 7.203125 -7.523438 7.453125 -7.675781 7.578125 -7.84375 C 7.710938 -8.019531 7.78125 -8.242188 7.78125 -8.515625 C 7.78125 -8.890625 7.644531 -9.175781 7.375 -9.375 C 7.113281 -9.570312 6.675781 -9.671875 6.0625 -9.671875 C 5.40625 -9.671875 4.773438 -9.523438 4.171875 -9.234375 C 3.578125 -8.941406 3.0625 -8.554688 2.625 -8.078125 L 2.421875 -8.078125 L 1.171875 -9.953125 C 1.773438 -10.617188 2.507812 -11.140625 3.375 -11.515625 C 4.238281 -11.890625 5.179688 -12.078125 6.203125 -12.078125 C 7.773438 -12.078125 8.910156 -11.742188 9.609375 -11.078125 C 10.316406 -10.410156 10.671875 -9.460938 10.671875 -8.234375 L 10.671875 -3.09375 C 10.671875 -2.5625 10.898438 -2.296875 11.359375 -2.296875 C 11.546875 -2.296875 11.722656 -2.328125 11.890625 -2.390625 L 12.046875 -2.359375 L 12.25 -0.28125 C 12.09375 -0.175781 11.863281 -0.0859375 11.5625 -0.015625 C 11.269531 0.0546875 10.953125 0.09375 10.609375 0.09375 C 9.898438 0.09375 9.34375 -0.0390625 8.9375 -0.3125 C 8.539062 -0.59375 8.257812 -1.019531 8.09375 -1.59375 L 7.859375 -1.625 C 7.285156 -0.394531 6.207031 0.21875 4.625 0.21875 Z M 5.5625 -2 C 6.25 -2 6.796875 -2.226562 7.203125 -2.6875 C 7.617188 -3.15625 7.828125 -3.800781 7.828125 -4.625 L 7.828125 -5.828125 L 7.625 -5.859375 C 7.445312 -5.722656 7.210938 -5.601562 6.921875 -5.5 C 6.628906 -5.40625 6.210938 -5.3125 5.671875 -5.21875 C 5.023438 -5.113281 4.5625 -4.929688 4.28125 -4.671875 C 4 -4.410156 3.859375 -4.039062 3.859375 -3.5625 C 3.859375 -3.050781 4.007812 -2.660156 4.3125 -2.390625 C 4.613281 -2.128906 5.03125 -2 5.5625 -2 Z M 5.5625 -2 "/></g></g></g></svg>